<svg height='100px' width='100px'  fill="#1f87b5" xmlns="http://www.w3.org/2000/svg" xmlns:xlink="http://www.w3.org/1999/xlink" version="1.1" x="0px" y="0px" viewBox="0 0 64 64" enable-background="new 0 0 64 64" xml:space="preserve"><path fill="#1f87b5" d="M13.4,17.2c-0.4,0.3-0.6,0.9-0.2,1.4c0.2,0.3,0.5,0.4,0.8,0.4c0.2,0,0.4-0.1,0.6-0.2l6.4-4.6l2.2,1.5  l7.9,16.7c0.2,0.4,0.5,0.6,0.9,0.6c0.1,0,0.3,0,0.4-0.1c0.5-0.2,0.7-0.8,0.5-1.3l-8-17c-0.1-0.2-0.2-0.3-0.4-0.4L22,12.5V5  c0-2.6-2.5-5.1-5.1-5.1C14.4-0.1,12,2.4,12,5v8c0,0.6,0.4,1,1,1s1-0.4,1-1v-0.3c1.3-0.6,4-2,4.9-4.3C19,8.3,19,8.1,19,8V5  c0-0.6-0.4-1-1-1h-3.8c0.4-1.1,1.6-2.1,2.7-2.1C18.5,1.9,20,3.5,20,5v7.5L13.4,17.2z M17,7.8c-0.5,1.1-1.9,2-3,2.6V6h3V7.8z"></path><path fill="#1f87b5" d="M6,29.3l2-6.6v9.2l-1,8l-2,19c0,0.3,0.1,0.6,0.3,0.8S5.7,60,6,60h12c0.2,0,0.4-0.1,0.6-0.2l9-6  c0.4-0.2,0.5-0.7,0.4-1.1l-5-18.9V21c0-0.6-0.4-1-1-1s-1,0.4-1,1v13c0,0.1,0,0.2,0,0.3l4.8,18.3L17.7,58H7.1L9,40.1l1-8.1  c0,0,0-0.1,0-0.1V15c0-0.6-0.4-1-1-1s-1,0.4-1,1v0.9L4.1,28.6l-3.9,5.9c-0.3,0.5-0.2,1.1,0.3,1.4C0.6,35.9,0.8,36,1,36  c0.3,0,0.6-0.2,0.8-0.4l4-6C5.9,29.5,5.9,29.4,6,29.3z"></path><path fill="#1f87b5" d="M10,63c0-0.6-0.4-1-1-1H5c-0.6,0-1,0.4-1,1s0.4,1,1,1h4C9.6,64,10,63.6,10,63z"></path><path fill="#1f87b5" d="M26,57l-3.2,2.4c-0.4,0.3-0.5,1-0.2,1.4c0.2,0.3,0.5,0.4,0.8,0.4c0.2,0,0.4-0.1,0.6-0.2l3.2-2.4  c0.4-0.3,0.5-1,0.2-1.4C27.1,56.8,26.4,56.7,26,57z"></path><path fill="#1f87b5" d="M43,15c-0.6,0-1,0.4-1,1v10c0,0.6,0.4,1,1,1h8c0.6,0,1-0.4,1-1v-1.8c2.3-0.1,4-1,4.9-2.7  C57,21.3,57,21.2,57,21v-5c0-0.2-0.1-0.4-0.2-0.5c-0.1-0.2-1.4-2.1-3.8-2.1s-3.7,1.9-3.8,2.1C49.1,15.6,49,15.8,49,16v7  c0,0.5,0.3,0.9,0.8,1c0,0,0.1,0,0.2,0.1v1h-6v-9C44,15.4,43.6,15,43,15z M51.8,22.2c-0.3,0-0.6,0-0.8,0V18h4v2.7  C54.4,21.7,53.3,22.2,51.8,22.2z M54.7,16h-3.3c0.4-0.3,0.9-0.6,1.7-0.6C53.7,15.4,54.3,15.7,54.7,16z"></path><path fill="#1f87b5" d="M54.6,26.9l3.6,1.8L62,41.3c0.1,0.4,0.5,0.7,1,0.7c0.1,0,0.2,0,0.3,0c0.5-0.2,0.8-0.7,0.7-1.2l-4-13  c-0.1-0.3-0.3-0.5-0.5-0.6l-4-2c-0.5-0.2-1.1,0-1.3,0.4C53.9,26,54.1,26.6,54.6,26.9z"></path><path fill="#1f87b5" d="M59.9,51.5L57,41.9l1-9.8c0.1-0.5-0.3-1-0.9-1.1c-0.6,0-1,0.3-1.1,0.9l-1,10c0,0.1,0,0.3,0,0.4l3,10  c0,0.1,0.1,0.2,0.2,0.3l3.4,4.3l-0.6,0.6l-4.2-5.1l-4-6.9c-0.2-0.4-0.6-0.6-1-0.5c-0.4,0.1-0.7,0.4-0.8,0.8L48.2,59h-1.1L48,43h5  c0.6,0,1-0.4,1-1s-0.4-1-1-1h-5V30c0-0.6-0.4-1-1-1s-1,0.4-1,1l0,12c0,0,0,0,0,0s0,0,0,0v0.9l-0.1,2l-3.3-12.2  c-0.1-0.3-0.2-0.5-0.5-0.6C41.9,32,41.6,32,41.4,32l-14.5,3.9c-0.5,0.1-0.8,0.7-0.7,1.2l3.4,12.6c0.1,0.3,0.2,0.5,0.5,0.6  c0.2,0.1,0.3,0.1,0.5,0.1c0.1,0,0.2,0,0.3,0l14.5-3.9c0.2-0.1,0.4-0.2,0.6-0.4L45,59.9c0,0.3,0.1,0.5,0.3,0.7  c0.2,0.2,0.5,0.3,0.7,0.3h3c0.5,0,0.9-0.3,1-0.8l2.5-11.4l2.7,4.7c0,0.1,0.1,0.1,0.1,0.1l5,6c0.2,0.2,0.4,0.3,0.7,0.4  c0.3,0,0.6-0.1,0.8-0.3l2-2c0.4-0.4,0.4-0.9,0.1-1.3L59.9,51.5z M31.2,48.2l-2.9-10.6l12.6-3.4l2.9,10.6L31.2,48.2z"></path><path fill="#1f87b5" d="M48,64c0.6,0,1-0.4,1-1s-0.4-1-1-1h-4c-0.6,0-1,0.4-1,1s0.4,1,1,1H48z"></path><path fill="#1f87b5" d="M61,8.4C61,6.5,59.5,5,57.6,5H44.4C42.5,5,41,6.5,41,8.4v1.1c0,1.9,1.5,3.4,3.4,3.4h13.1  c1.9,0,3.4-1.5,3.4-3.4V8.4z M59,9.5c0,0.8-0.6,1.5-1.4,1.5H44.4c-0.8,0-1.4-0.6-1.4-1.5V8.5C43,7.6,43.6,7,44.4,7h13.1  C58.4,7,59,7.6,59,8.5V9.5z"></path></svg>