<svg height='100px' width='100px'  fill="#1f87b5" xmlns="http://www.w3.org/2000/svg" xmlns:xlink="http://www.w3.org/1999/xlink" version="1.1" x="0px" y="0px" viewBox="0 0 64 64" style="enable-background:new 0 0 64 64;" xml:space="preserve"><path d="M49.539,21.708l-0.221,1.987l4.296,0.478l-7.053,7.053c-2.64-2.312-6.085-3.725-9.861-3.725  c-0.072,0-0.141,0.01-0.212,0.011c0.001-0.071,0.011-0.14,0.011-0.212c0-3.776-1.413-7.221-3.725-9.861l7.053-7.053l0.478,4.296  l1.987-0.221l-0.795-7.16l-7.159-0.795l-0.221,1.987l4.296,0.478l-7.053,7.053c-2.64-2.312-6.085-3.725-9.861-3.725  c-8.271,0-15,6.729-15,15s6.729,15,15,15c0.072,0,0.141-0.01,0.212-0.011c-0.001,0.071-0.011,0.14-0.011,0.212  c0,8.271,6.729,15,15,15s15-6.729,15-15c0-3.776-1.413-7.221-3.725-9.861l7.053-7.053l0.478,4.296l1.987-0.221l-0.795-7.159  L49.539,21.708z M21.5,40.299c-7.168,0-13-5.832-13-13s5.832-13,13-13s13,5.832,13,13c0,0.13-0.016,0.255-0.019,0.384  c-6.492,0.97-11.626,6.104-12.596,12.596C21.755,40.283,21.63,40.299,21.5,40.299z M34.263,29.737  c-0.995,5.215-5.109,9.33-10.324,10.324C24.933,34.847,29.048,30.732,34.263,29.737z M36.701,55.5c-7.168,0-13-5.832-13-13  c0-0.13,0.016-0.255,0.019-0.384c6.492-0.97,11.626-6.104,12.596-12.596c0.129-0.004,0.255-0.019,0.384-0.019  c7.168,0,13,5.832,13,13S43.87,55.5,36.701,55.5z"></path></svg>