<svg height='100px' width='100px'  fill="#1f87b5" xmlns="http://www.w3.org/2000/svg" xmlns:xlink="http://www.w3.org/1999/xlink" viewBox="0 0 22 24" version="1.1" x="0px" y="0px"><title>11 -Gay Sex- (Outline)</title><desc>Created with Sketch.</desc><g stroke="none" stroke-width="1" fill="none" fill-rule="evenodd"><g fill="#1f87b5"><path d="M14.0246653,17.7191632 C13.7948794,18.7178147 13.3097148,19.6320378 12.6026789,20.3730977 C10.5300751,22.5423163 7.1894846,22.5423163 5.11736476,20.3727244 C3.02045615,18.1763274 3.02045615,14.5976222 5.11736476,12.4020756 C7.18959261,10.2315304 10.5299671,10.2315304 12.6030415,12.4020821 C12.9844947,12.8014715 13.6174927,12.8160117 14.0168821,12.4345585 C14.4162715,12.0531053 14.4308117,11.4201073 14.0493585,11.0207179 C11.1884329,8.02526964 6.53080739,8.02526964 3.67090167,11.0208643 C0.835943848,13.9891778 0.835943848,18.7844726 3.67090167,21.7539357 C6.5309154,24.7484837 11.1883249,24.7484837 14.0492249,21.754222 C15.0077859,20.7495334 15.6643064,19.5124146 15.9737347,18.1676368 C16.0975772,17.6294161 15.7616574,17.0927079 15.2234368,16.9688653 C14.6852161,16.8450228 14.1485079,17.1809426 14.0246653,17.7191632 Z"></path><path d="M9.63916476,4.99137556 C11.7112846,2.82178374 15.0518751,2.82178374 17.1249751,4.99152199 C19.2217216,7.1868989 19.2217216,10.7665011 17.1248352,12.9620244 C15.0517671,15.1325696 11.7113926,15.1325696 9.63929833,12.9621643 C9.257926,12.5626977 8.62493095,12.5480293 8.22546432,12.9294017 C7.82599768,13.310774 7.81132935,13.943769 8.19270167,14.3432357 C11.0526074,17.3388304 15.7102329,17.3388304 18.5711585,14.3433821 C21.4062784,11.3748989 21.4062784,6.5785011 18.5711648,3.61002444 C15.7101249,0.615616259 11.0527154,0.615616259 8.19283524,3.61002444 C7.81138566,4.00941731 7.82593157,4.64241518 8.22532444,5.02386476 C8.62471731,5.40531434 9.25771518,5.39076843 9.63916476,4.99137556 Z"></path><path d="M18.5949867,4.93845259 L21.5669867,1.82645259 C21.9484236,1.42704761 21.9338576,0.794050197 21.5344526,0.412613303 C21.1350476,0.0311764097 20.5020502,0.045742425 20.1206133,0.445147409 L17.1486133,3.55714741 C16.7671764,3.95655239 16.7817424,4.5895498 17.1811474,4.9709867 C17.5805524,5.35242359 18.2135498,5.33785757 18.5949867,4.93845259 Z"></path><path d="M21,0 L18.399,0 C17.8467153,0 17.399,0.44771525 17.399,1 C17.399,1.55228475 17.8467153,2 18.399,2 L21,2 C21.5522847,2 22,1.55228475 22,1 C22,0.44771525 21.5522847,0 21,0 Z"></path><path d="M22,3.7229 L22,0.9999 C22,0.44761525 21.5522847,-0.0001 21,-0.0001 C20.4477153,-0.0001 20,0.44761525 20,0.9999 L20,3.7229 C20,4.27518475 20.4477153,4.7229 21,4.7229 C21.5522847,4.7229 22,4.27518475 22,3.7229 Z"></path><path d="M4.8513867,10.5571474 L1.8793867,7.44514741 C1.4979498,7.04574243 0.864952393,7.03117641 0.465547409,7.4126133 C0.066142425,7.7940502 0.0515764097,8.42704761 0.433013303,8.82645259 L3.4050133,11.9384526 C3.7864502,12.3378576 4.41944761,12.3524236 4.81885259,11.9709867 C5.21825757,11.5895498 5.23282359,10.9565524 4.8513867,10.5571474 Z"></path><path d="M1,9 L3.601,9 C4.15328475,9 4.601,8.55228475 4.601,8 C4.601,7.44771525 4.15328475,7 3.601,7 L1,7 C0.44771525,7 0,7.44771525 0,8 C0,8.55228475 0.44771525,9 1,9 Z"></path><path d="M2,10.7229 L2,7.9999 C2,7.44761525 1.55228475,6.9999 1,6.9999 C0.44771525,6.9999 0,7.44761525 0,7.9999 L0,10.7229 C0,11.2751847 0.44771525,11.7229 1,11.7229 C1.55228475,11.7229 2,11.2751847 2,10.7229 Z"></path></g></g></svg>