<svg height='100px' width='100px'  fill="#1f87b5" xmlns="http://www.w3.org/2000/svg" xmlns:xlink="http://www.w3.org/1999/xlink" xmlns:serif="http://www.serif.com/" viewBox="0 0 64 64" version="1.1" xml:space="preserve" style="" x="0px" y="0px" fill-rule="evenodd" clip-rule="evenodd" stroke-linejoin="round" stroke-miterlimit="1.41421"><rect serif:id="No Drugs" x="0" y="0" width="64" height="64" style="" fill="none"></rect><path d="M32.024,2c4.208,0.005 8.333,0.881 12.131,2.568c3.151,1.4 6.056,3.349 8.555,5.735c2.427,2.318 4.463,5.04 5.995,8.023c1.763,3.434 2.843,7.209 3.178,11.012c0.333,3.771 -0.045,7.608 -1.132,11.248c-0.953,3.19 -2.444,6.216 -4.394,8.923c-1.688,2.342 -3.714,4.442 -5.999,6.213c-2.094,1.624 -4.401,2.969 -6.853,3.989c-3.11,1.294 -6.444,2.055 -9.819,2.242c-3.456,0.192 -6.95,-0.21 -10.272,-1.202c-2.638,-0.788 -5.169,-1.945 -7.504,-3.432c-2.281,-1.454 -4.367,-3.22 -6.173,-5.218c-2.989,-3.309 -5.232,-7.283 -6.501,-11.559c-0.817,-2.753 -1.231,-5.62 -1.236,-8.494c-0.006,-4.023 0.802,-8.048 2.368,-11.742c1.267,-2.986 3.027,-5.77 5.189,-8.206c2.287,-2.577 5.027,-4.765 8.048,-6.422c3.245,-1.78 6.82,-2.95 10.507,-3.428c1.275,-0.165 2.559,-0.247 3.84,-0.25c0.024,0 0.048,0 0.072,0Zm-0.047,2c-2.826,0.003 -5.646,0.429 -8.341,1.272c-3.997,1.252 -7.698,3.421 -10.752,6.276c-2.327,2.177 -4.28,4.745 -5.751,7.579c-1.641,3.159 -2.667,6.638 -3.006,10.187c-0.341,3.581 0.004,7.218 1.026,10.658c0.908,3.058 2.348,5.957 4.237,8.539c2.345,3.204 5.379,5.91 8.844,7.872c2.641,1.496 5.537,2.561 8.532,3.128c2.609,0.494 5.287,0.615 7.942,0.36c3.315,-0.319 6.564,-1.234 9.559,-2.698c3.264,-1.595 6.193,-3.819 8.61,-6.523c2.049,-2.292 3.72,-4.918 4.922,-7.756c1.196,-2.828 1.918,-5.848 2.132,-8.918c0.261,-3.727 -0.22,-7.496 -1.431,-11.033c-1.232,-3.603 -3.213,-6.943 -5.777,-9.765c-3.33,-3.664 -7.636,-6.427 -12.359,-7.906c-2.461,-0.77 -5.028,-1.194 -7.619,-1.262c-0.256,-0.007 -0.51,-0.01 -0.768,-0.01Zm19.147,10.796c0.032,0.005 0.065,0.008 0.096,0.014c0.191,0.035 0.371,0.128 0.511,0.263c0.074,0.072 0.138,0.155 0.205,0.235c1.948,2.322 3.49,4.999 4.518,7.851c1.003,2.784 1.525,5.742 1.541,8.702c0.022,4.103 -0.938,8.212 -2.788,11.872c-1.913,3.787 -4.767,7.083 -8.243,9.533c-2.967,2.092 -6.38,3.545 -9.936,4.241c-3.342,0.656 -6.819,0.65 -10.165,-0.021c-3.133,-0.628 -6.14,-1.835 -8.834,-3.553c-0.954,-0.609 -1.868,-1.28 -2.736,-2.009c-0.045,-0.038 -0.09,-0.076 -0.135,-0.114l-0.014,-0.013c-0.024,-0.022 -0.049,-0.043 -0.071,-0.066c-0.247,-0.256 -0.342,-0.647 -0.236,-0.99c0.038,-0.124 0.101,-0.24 0.183,-0.34c0.021,-0.025 0.044,-0.048 0.065,-0.072l35.244,-35.244c0.064,-0.058 0.078,-0.075 0.15,-0.123c0.107,-0.072 0.229,-0.123 0.355,-0.149c0.085,-0.017 0.107,-0.016 0.193,-0.021c0.033,0.002 0.065,0.003 0.097,0.004Zm-14.174,16.497l2.828,2.828c0.022,0.025 0.045,0.048 0.066,0.073c0.248,0.302 0.297,0.754 0.109,1.106c-0.031,0.058 -0.067,0.112 -0.109,0.163c-0.021,0.025 -0.044,0.048 -0.066,0.073l2.121,2.121c0.022,0.024 0.046,0.047 0.066,0.073c0.228,0.277 0.291,0.68 0.151,1.017c-0.037,0.09 -0.088,0.175 -0.151,0.251c-0.02,0.026 -0.044,0.049 -0.066,0.073l-0.707,0.707l4.95,4.95c0.022,0.024 0.045,0.047 0.066,0.073c0.207,0.252 0.28,0.609 0.184,0.924c-0.095,0.313 -0.353,0.572 -0.667,0.667c-0.281,0.085 -0.6,0.038 -0.846,-0.126c-0.072,-0.048 -0.087,-0.065 -0.151,-0.124l-4.95,-4.95l-0.707,0.707c-0.024,0.022 -0.047,0.046 -0.073,0.066c-0.302,0.248 -0.753,0.298 -1.105,0.109c-0.058,-0.031 -0.113,-0.067 -0.163,-0.109c-0.026,-0.02 -0.049,-0.044 -0.073,-0.066l-2.121,-2.121c-0.025,0.022 -0.048,0.045 -0.073,0.066c-0.303,0.248 -0.754,0.297 -1.106,0.109c-0.058,-0.031 -0.112,-0.067 -0.163,-0.109c-0.025,-0.021 -0.048,-0.044 -0.073,-0.066l-2.828,-2.828m-14.011,14.01c1.687,1.311 3.564,2.405 5.552,3.225c2.437,1.005 5.048,1.601 7.669,1.764c2.619,0.162 5.256,-0.104 7.782,-0.786c3.03,-0.818 5.906,-2.246 8.391,-4.17c2.989,-2.315 5.425,-5.339 7.03,-8.743c1.466,-3.107 2.25,-6.537 2.288,-9.984c0.033,-3.01 -0.503,-6.028 -1.572,-8.835c-0.771,-2.024 -1.818,-3.94 -3.115,-5.691c-0.11,-0.15 -0.222,-0.297 -0.336,-0.444l-0.011,-0.014c-11.226,11.226 -22.452,22.452 -33.678,33.678Zm14.745,-44.955c2.554,0.003 5.076,0.377 7.498,1.106c3.277,0.987 6.356,2.633 9.001,4.815c0.106,0.087 0.211,0.175 0.316,0.264l0.014,0.013c0.024,0.022 0.049,0.043 0.071,0.066c0.225,0.233 0.325,0.58 0.26,0.897c-0.033,0.158 -0.104,0.308 -0.207,0.433c-0.021,0.025 -0.044,0.048 -0.065,0.072l-35.244,35.244c-0.024,0.021 -0.047,0.044 -0.072,0.065c-0.298,0.246 -0.743,0.297 -1.094,0.116c-0.086,-0.044 -0.166,-0.102 -0.236,-0.169c-0.023,-0.022 -0.044,-0.047 -0.066,-0.071c0,0 -0.025,-0.029 -0.025,-0.029c-1.872,-2.202 -3.353,-4.684 -4.394,-7.353c-1.271,-3.257 -1.873,-6.765 -1.767,-10.262c0.102,-3.399 0.873,-6.777 2.27,-9.886c1.586,-3.527 3.978,-6.686 6.931,-9.186c2.267,-1.92 4.871,-3.448 7.658,-4.49c2.488,-0.93 5.116,-1.472 7.761,-1.61c0.463,-0.024 0.927,-0.035 1.39,-0.035Zm0.68,21.045l14.011,-14.01c-1.804,-1.403 -3.851,-2.571 -6.02,-3.412c-2.616,-1.014 -5.41,-1.562 -8.21,-1.618c-0.166,-0.004 -0.331,-0.005 -0.497,-0.005c-3.031,0.002 -6.035,0.573 -8.836,1.68c-3.516,1.39 -6.692,3.639 -9.192,6.481c-1.938,2.204 -3.468,4.769 -4.482,7.524c-1.227,3.338 -1.7,6.958 -1.376,10.508c0.319,3.49 1.408,6.912 3.187,9.943c0.523,0.892 1.106,1.75 1.737,2.563l0.011,0.014l14.01,-14.011l-7.071,-7.071c-0.022,-0.024 -0.045,-0.047 -0.066,-0.073c-0.248,-0.302 -0.297,-0.753 -0.109,-1.105c0.031,-0.058 0.068,-0.113 0.109,-0.163c0.021,-0.026 0.044,-0.049 0.066,-0.073c0,0 -2.828,-2.829 -2.828,-2.829l-0.707,0.708c-0.025,0.021 -0.048,0.045 -0.073,0.065c-0.303,0.249 -0.754,0.298 -1.106,0.109c-0.317,-0.169 -0.528,-0.518 -0.528,-0.882c0,-0.196 0.059,-0.392 0.168,-0.555c0.049,-0.073 0.066,-0.087 0.124,-0.152l5.657,-5.657c0.065,-0.058 0.079,-0.075 0.152,-0.124c0.109,-0.073 0.232,-0.124 0.36,-0.149c0.086,-0.017 0.108,-0.015 0.195,-0.019c0.033,0.001 0.066,0.003 0.098,0.004c0.033,0.005 0.065,0.008 0.097,0.015c0.353,0.07 0.657,0.342 0.762,0.69c0.095,0.313 0.025,0.67 -0.184,0.925c-0.02,0.025 -0.044,0.048 -0.065,0.073l-0.708,0.707l2.829,2.828c0.064,-0.058 0.079,-0.076 0.151,-0.124c0.109,-0.073 0.232,-0.124 0.361,-0.149c0.086,-0.018 0.108,-0.015 0.195,-0.02c0.033,0.002 0.065,0.004 0.098,0.005c0.032,0.005 0.065,0.008 0.097,0.015c0.129,0.025 0.252,0.076 0.361,0.149c0.072,0.048 0.087,0.066 0.151,0.124l7.071,7.071Zm4.243,11.314l1.414,1.414l1.414,-1.414l-1.414,-1.414c-0.471,0.471 -0.943,0.943 -1.414,1.414Zm-1.414,-5.657l-2.829,2.829l2.121,2.121l2.829,-2.829l-2.121,-2.121Zm-10.607,-10.606c0,0 -2.828,2.828 -2.828,2.828c0,0 6.363,6.364 6.363,6.364l2.829,-2.829l-0.707,-0.707l-0.707,0.707c-0.015,0.015 -0.019,0.019 -0.035,0.033c-0.322,0.293 -0.844,0.346 -1.224,0.094c-0.25,-0.165 -0.418,-0.446 -0.445,-0.745c-0.024,-0.275 0.072,-0.558 0.257,-0.762c0.014,-0.015 0.018,-0.019 0.032,-0.034l0.708,-0.707l-1.415,-1.414l-0.707,0.707c-0.015,0.015 -0.018,0.019 -0.034,0.033c-0.322,0.293 -0.845,0.345 -1.225,0.094c-0.3,-0.199 -0.479,-0.572 -0.443,-0.934c0.021,-0.212 0.112,-0.416 0.255,-0.573c0.015,-0.016 0.018,-0.019 0.033,-0.034l0.707,-0.707l-1.414,-1.414l0,0Zm-2.121,-0.708l-2.829,-2.828c-0.471,0.471 -0.943,0.943 -1.414,1.414l2.828,2.829l1.415,-1.415Z" style="" fill-rule="nonzero"></path></svg>