<svg height='100px' width='100px'  fill="#1f87b5" xmlns="http://www.w3.org/2000/svg" xmlns:xlink="http://www.w3.org/1999/xlink" version="1.1" x="0px" y="0px" viewBox="0 0 100 100" enable-background="new 0 0 100 100" xml:space="preserve"><g display="none"><g display="inline"><g><path fill="#1f87b5" stroke="#1f87b5" stroke-width="3.4256" stroke-linecap="round" stroke-linejoin="round" stroke-miterlimit="10" d="     M65.815,24.853l10.428,10.275L40.01,71.894c0,0-6.352,6.832-11.758,1.505c-5.406-5.326,1.18-11.625,1.18-11.625L65.815,24.853z"></path><line fill="#1f87b5" stroke="#1f87b5" stroke-width="3.4256" stroke-linecap="round" stroke-linejoin="round" stroke-miterlimit="10" x1="44.256" y1="48.817" x2="50.511" y2="54.981"></line><line fill="#1f87b5" stroke="#1f87b5" stroke-width="3.4256" stroke-linecap="round" stroke-linejoin="round" stroke-miterlimit="10" x1="54.529" y1="38.392" x2="60.785" y2="44.556"></line><line fill="#1f87b5" stroke="#1f87b5" stroke-width="3.4256" stroke-linecap="round" stroke-linejoin="round" stroke-miterlimit="10" x1="40.146" y1="52.987" x2="42.231" y2="55.042"></line><line fill="#1f87b5" stroke="#1f87b5" stroke-width="3.4256" stroke-linecap="round" stroke-linejoin="round" stroke-miterlimit="10" x1="37.064" y1="56.116" x2="39.149" y2="58.17"></line><line fill="#1f87b5" stroke="#1f87b5" stroke-width="3.4256" stroke-linecap="round" stroke-linejoin="round" stroke-miterlimit="10" x1="47.339" y1="45.689" x2="49.424" y2="47.745"></line><line fill="#1f87b5" stroke="#1f87b5" stroke-width="3.4256" stroke-linecap="round" stroke-linejoin="round" stroke-miterlimit="10" x1="51.448" y1="41.52" x2="53.534" y2="43.574"></line><line fill="#1f87b5" stroke="#1f87b5" stroke-width="3.4256" stroke-linecap="round" stroke-linejoin="round" stroke-miterlimit="10" x1="27.878" y1="73.778" x2="16.576" y2="85.247"></line><line fill="none" stroke="#1f87b5" stroke-width="3.4256" stroke-linecap="round" stroke-linejoin="round" stroke-miterlimit="10" x1="69.972" y1="26.893" x2="80.246" y2="16.467"></line><line fill="none" stroke="#1f87b5" stroke-width="3.4256" stroke-linecap="round" stroke-linejoin="round" stroke-miterlimit="10" x1="74.143" y1="31.003" x2="84.416" y2="20.577"></line><line fill="none" stroke="#1f87b5" stroke-width="3.4256" stroke-linecap="round" stroke-linejoin="round" stroke-miterlimit="10" x1="77.119" y1="13.385" x2="87.544" y2="23.66"></line></g><g><polygon fill="none" stroke="#1f87b5" stroke-width="3" stroke-linecap="round" stroke-linejoin="round" stroke-miterlimit="10" points="     62.5,82.5 75.5,82.5 75.5,89.245 85.5,78.343 85.5,78.321 75.5,67.411 75.5,73.5 62.5,73.5    "></polygon><polygon fill="none" stroke="#1f87b5" stroke-width="3" stroke-linecap="round" stroke-linejoin="round" stroke-miterlimit="10" points="     36.5,26.5 22.5,26.5 22.5,33.293 12.5,22.392 12.5,22.37 22.5,11.46 22.5,17.5 36.5,17.5    "></polygon></g></g></g><g><g><g><g><path fill="#1f87b5" d="M32.864,77.144c-2.158,0-4.114-0.85-5.813-2.525c-1.769-1.743-2.658-3.761-2.641-5.997      c0.033-4.395,3.684-7.937,3.839-8.086l36.347-36.884c0.664-0.675,1.747-0.681,2.422-0.018l10.428,10.275      c0.323,0.319,0.507,0.753,0.511,1.208c0.003,0.455-0.174,0.892-0.493,1.215L41.23,73.096      C41.11,73.227,37.416,77.144,32.864,77.144z M65.833,27.275l-35.18,35.7c-0.061,0.06-2.805,2.748-2.818,5.685      c-0.006,1.287,0.524,2.438,1.62,3.519c1.051,1.035,2.166,1.539,3.409,1.539c3.047,0,5.867-2.964,5.895-2.994l35.062-35.578      L65.833,27.275z"></path></g><g><line fill="#1f87b5" x1="44.256" y1="48.817" x2="50.511" y2="54.981"></line><path fill="#1f87b5" d="M50.511,56.694c-0.434,0-0.869-0.164-1.202-0.493l-6.255-6.165c-0.674-0.664-0.682-1.748-0.018-2.422      c0.665-0.674,1.749-0.681,2.422-0.018l6.255,6.165c0.674,0.664,0.682,1.748,0.018,2.422      C51.396,56.523,50.954,56.694,50.511,56.694z"></path></g><g><line fill="#1f87b5" x1="54.529" y1="38.392" x2="60.785" y2="44.556"></line><path fill="#1f87b5" d="M60.785,46.269c-0.435,0-0.868-0.164-1.202-0.493l-6.256-6.164c-0.674-0.664-0.682-1.749-0.018-2.422      c0.664-0.675,1.748-0.682,2.422-0.018l6.256,6.164c0.674,0.664,0.682,1.749,0.018,2.422      C61.67,46.099,61.228,46.269,60.785,46.269z"></path></g><g><line fill="#1f87b5" x1="40.146" y1="52.987" x2="42.231" y2="55.042"></line><path fill="#1f87b5" d="M42.231,56.755c-0.434,0-0.869-0.164-1.202-0.493l-2.085-2.055c-0.674-0.664-0.682-1.748-0.018-2.422      c0.664-0.673,1.75-0.681,2.422-0.018l2.085,2.055c0.674,0.664,0.682,1.748,0.018,2.422      C43.116,56.584,42.674,56.755,42.231,56.755z"></path></g><g><line fill="#1f87b5" x1="37.064" y1="56.116" x2="39.149" y2="58.17"></line><path fill="#1f87b5" d="M39.149,59.883c-0.434,0-0.868-0.164-1.202-0.492l-2.085-2.054c-0.674-0.664-0.682-1.749-0.018-2.423      c0.665-0.673,1.749-0.681,2.422-0.019l2.085,2.054c0.674,0.664,0.682,1.749,0.018,2.423      C40.034,59.712,39.591,59.883,39.149,59.883z"></path></g><g><line fill="#1f87b5" x1="47.339" y1="45.689" x2="49.424" y2="47.745"></line><path fill="#1f87b5" d="M49.424,49.458c-0.434,0-0.869-0.164-1.202-0.493l-2.085-2.056c-0.674-0.664-0.682-1.749-0.018-2.422      s1.749-0.682,2.422-0.018l2.085,2.056c0.674,0.664,0.682,1.749,0.018,2.422C50.309,49.288,49.867,49.458,49.424,49.458z"></path></g><g><line fill="#1f87b5" x1="51.448" y1="41.52" x2="53.534" y2="43.574"></line><path fill="#1f87b5" d="M53.534,45.287c-0.434,0-0.868-0.164-1.202-0.493l-2.085-2.054c-0.674-0.664-0.683-1.748-0.019-2.422      c0.663-0.674,1.748-0.683,2.422-0.019l2.086,2.054c0.674,0.664,0.682,1.748,0.019,2.422      C54.419,45.116,53.977,45.287,53.534,45.287z"></path></g><g><line fill="#1f87b5" x1="27.878" y1="73.778" x2="16.576" y2="85.247"></line><path fill="#1f87b5" d="M16.576,86.96c-0.434,0-0.869-0.164-1.202-0.493c-0.674-0.664-0.682-1.748-0.018-2.422l11.303-11.469      c0.664-0.673,1.749-0.682,2.422-0.018c0.674,0.664,0.682,1.748,0.018,2.422L17.795,86.449      C17.46,86.789,17.018,86.96,16.576,86.96z"></path></g><g><path fill="#1f87b5" d="M69.972,28.605c-0.435,0-0.868-0.164-1.202-0.493c-0.674-0.664-0.682-1.748-0.018-2.422l10.274-10.425      c0.663-0.675,1.747-0.682,2.422-0.018c0.674,0.664,0.682,1.748,0.018,2.422L71.191,28.095      C70.856,28.435,70.414,28.605,69.972,28.605z"></path></g><g><path fill="#1f87b5" d="M74.143,32.716c-0.435,0-0.868-0.164-1.202-0.493c-0.674-0.664-0.682-1.749-0.018-2.422l10.273-10.426      c0.663-0.675,1.747-0.682,2.422-0.018c0.674,0.664,0.682,1.749,0.018,2.422L75.362,32.205      C75.027,32.545,74.585,32.716,74.143,32.716z"></path></g><g><path fill="#1f87b5" d="M87.544,25.373c-0.435,0-0.869-0.164-1.202-0.493L75.917,14.604c-0.674-0.664-0.682-1.749-0.018-2.422      c0.664-0.674,1.75-0.683,2.422-0.018L88.746,22.44c0.674,0.664,0.682,1.749,0.018,2.422      C88.429,25.203,87.986,25.373,87.544,25.373z"></path></g></g><g><g><path fill="#1f87b5" d="M75.5,90.745c-0.183,0-0.367-0.033-0.544-0.103C74.38,90.419,74,89.863,74,89.245V84H62.5      c-0.828,0-1.5-0.672-1.5-1.5v-9c0-0.828,0.672-1.5,1.5-1.5H74v-4.589c0-0.618,0.38-1.174,0.956-1.398      c0.576-0.222,1.232-0.072,1.649,0.385l10,10.91C86.859,77.584,87,77.946,87,78.321s-0.141,0.759-0.395,1.035l-10,10.902      C76.315,90.575,75.912,90.745,75.5,90.745z M64,81h11.5c0.828,0,1.5,0.672,1.5,1.5v2.891l6.475-7.059L77,71.268V73.5      c0,0.828-0.672,1.5-1.5,1.5H64V81z"></path></g><g><path fill="#1f87b5" d="M22.5,34.793c-0.413,0-0.816-0.17-1.106-0.486l-10-10.902C11.141,23.129,11,22.767,11,22.392      s0.141-0.758,0.394-1.035l10-10.91c0.418-0.455,1.072-0.608,1.65-0.384C23.62,10.286,24,10.841,24,11.46V16h12.5      c0.829,0,1.5,0.671,1.5,1.5v9c0,0.829-0.671,1.5-1.5,1.5H24v5.293c0,0.619-0.379,1.173-0.956,1.398      C22.867,34.76,22.683,34.793,22.5,34.793z M14.525,22.38L21,29.439V26.5c0-0.829,0.671-1.5,1.5-1.5H35v-6H22.5      c-0.829,0-1.5-0.671-1.5-1.5v-2.184L14.525,22.38z"></path></g></g></g></g></svg>