<svg height='100px' width='100px'  fill="#1f87b5" xmlns="http://www.w3.org/2000/svg" data-name="25 Tuberculosis" viewBox="0 0 64 64" x="0px" y="0px"><title>a</title><path d="M43,16c-2.856,0-4.727,3.733-5.521,7.215A16.36,16.36,0,0,0,37,27v5.87a10.446,10.446,0,0,1-2-6.14V4a1,1,0,0,0-1-1H30a1,1,0,0,0-1,1V26.73a10.446,10.446,0,0,1-2,6.14V27a16.319,16.319,0,0,0-.476-3.772C25.727,19.733,23.856,16,21,16,17.2,16,3,30.743,3,45c0,4.811.682,16,7,16,14.791,0,17-8.771,17-14V40.3l3.714-2.321a2.442,2.442,0,0,1,2.572,0L37,40.3V47c0,5.229,2.209,14,17,14,6.318,0,7-11.189,7-16C61,30.743,46.805,16,43,16ZM10,59c-3.69,0-5-7.542-5-14C5,31.418,18.8,18.032,21,18c1.32,0,2.824,2.386,3.578,5.686A14.6,14.6,0,0,1,25,27v5.221a7.807,7.807,0,0,0-3.684-2.169C19.047,29.3,19,26.03,19,26a1,1,0,0,0-2,0c0,.192.042,4.734,3.684,5.948,2.448.817,3.3,1.5,4.152,4.557A15.411,15.411,0,0,1,18,38c-3.834,0-3.994-2.7-4-3a1,1,0,0,0-2,0,4.927,4.927,0,0,0,2.731,4.3,9.008,9.008,0,0,1-2.737.7A1,1,0,0,0,12,42a12.6,12.6,0,0,0,5.809-2.008c.066,0,.124.008.191.008a18.1,18.1,0,0,0,6.489-1.161,13.558,13.558,0,0,1-7.86,8.232A12.924,12.924,0,0,0,14.435,48.2a13.752,13.752,0,0,1-3.992-1.1A1,1,0,0,0,9.555,48.9a15,15,0,0,0,2.835.974,9.5,9.5,0,0,0-2.36,3.888,1,1,0,0,0,.722,1.208,1,1,0,0,0,1.217-.718c.038-.144.978-3.55,5.4-5.319A15.276,15.276,0,0,0,25,42.422V47C25,54.963,19.953,59,10,59ZM34.347,36.288a4.451,4.451,0,0,0-4.694,0L27,37.946V35.878a12.442,12.442,0,0,0,4-9.148V5h2V26.73a12.442,12.442,0,0,0,4,9.148v2.068ZM54,59c-9.953,0-15-4.037-15-12V27a14.638,14.638,0,0,1,.425-3.327C40.176,20.386,41.68,18,43,18c2.2.032,16,13.418,16,27C59,51.458,57.69,59,54,59Z"></path><path d="M47,35.99a3,3,0,1,0-3-3A3,3,0,0,0,47,35.99Zm0-4a1,1,0,1,1-1,1A1,1,0,0,1,47,31.99Z"></path><path d="M53,49a3,3,0,1,0-3,3A3,3,0,0,0,53,49Zm-3,1a1,1,0,1,1,1-1A1,1,0,0,1,50,50Z"></path><circle cx="52" cy="37.99" r="2"></circle><circle cx="54.995" cy="46" r="1.005"></circle><circle cx="44.005" cy="50.005" r="1.005"></circle><circle cx="49" cy="41.995" r="1.005"></circle><circle cx="53.005" cy="55" r="1.005"></circle><circle cx="44.005" cy="42" r="1.005"></circle></svg>