<svg height='100px' width='100px'  fill="#1f87b5" xmlns="http://www.w3.org/2000/svg" data-name="Layer 1" viewBox="0 0 100 100" x="0px" y="0px"><title>74</title><g data-name="Group"><path data-name="Compound Path" d="M12.4,94.8H34.8V72.7h5.1V54.1A11.6,11.6,0,0,0,28.3,42.5H18.8A11.6,11.6,0,0,0,7.2,54.1V72.7h5.1ZM11.2,68.7V54.1a7.6,7.6,0,0,1,7.6-7.6h9.5a7.6,7.6,0,0,1,7.6,7.6V68.7H30.8V90.8H25.6V74.1h-4V90.8H16.4V68.7Z"></path><path data-name="Compound Path" d="M14.4,31.1a9.2,9.2,0,1,0,9.2-9.2A9.2,9.2,0,0,0,14.4,31.1Zm14.4,0a5.2,5.2,0,1,1-5.2-5.2A5.2,5.2,0,0,1,28.8,31.1Z"></path><path data-name="Compound Path" d="M92.8,54.1A11.6,11.6,0,0,0,81.2,42.5H71.7A11.6,11.6,0,0,0,60.1,54.1V72.7h5.1V94.8H87.6V72.7h5.1Zm-4,14.7H83.6V90.8H78.4V74.1h-4V90.8H69.2V68.7H64.1V54.1a7.6,7.6,0,0,1,7.6-7.6h9.5a7.6,7.6,0,0,1,7.6,7.6Z"></path><path data-name="Compound Path" d="M85.6,31.1a9.2,9.2,0,1,0-9.2,9.2A9.2,9.2,0,0,0,85.6,31.1Zm-14.4,0a5.2,5.2,0,1,1,5.2,5.2A5.2,5.2,0,0,1,71.2,31.1Z"></path><path data-name="Compound Path" d="M56.4,5.2A10.4,10.4,0,0,0,50,7.4a10.4,10.4,0,0,0-6.4-2.2,9.7,9.7,0,0,0-9.8,9.8c0,6.4,5.6,11.4,12.8,17.7L50,36l3.3-3.3c7.1-6.3,12.8-11.3,12.8-17.7A9.7,9.7,0,0,0,56.4,5.2ZM50.7,29.6l-.7.6-.7-.6C42,23.2,37.9,19.3,37.9,14.9a5.6,5.6,0,0,1,5.8-5.8,6.5,6.5,0,0,1,4.8,2.3L50,13.2l1.5-1.8a6.5,6.5,0,0,1,4.8-2.3,5.6,5.6,0,0,1,5.8,5.8C62.1,19.3,58,23.2,50.7,29.6Z"></path></g></svg>