<svg height='100px' width='100px'  fill="#1f87b5" xmlns="http://www.w3.org/2000/svg" viewBox="0 0 100 100" x="0px" y="0px"><title>_</title><g data-name="expand? compound"><path d="M51.88643,48.11028a16.45032,16.45032,0,0,1-15.94238,16.417V89.74066l8.61377-8.61377a.49995.49995,0,0,1,.707.707L35.79757,91.3012a.49982.49982,0,0,1-.707,0l-9.46729-9.46729a.49995.49995,0,0,1,.707-.707l8.61377,8.61377V64.52728a16.43373,16.43373,0,0,1-6.04541-31.50391.49991.49991,0,1,1,.39844.917,15.44314,15.44314,0,1,0,13.26221.46143.50013.50013,0,0,1,.46191-.88721A16.40242,16.40242,0,0,1,51.88643,48.11028ZM80.49776,8.55218H67.10909a.5.5,0,0,0,0,1H79.29122L61.46309,27.3803A16.43374,16.43374,0,1,0,42.64571,53.9472a.49989.49989,0,0,0,.46-.8877,15.42794,15.42794,0,1,1,13.24121.457.50016.50016,0,0,0,.39746.918,16.42342,16.42342,0,0,0,5.42578-26.34717L79.99776,10.2597V22.44134a.5.5,0,0,0,1,0V9.05218A.5.5,0,0,0,80.49776,8.55218Z"></path></g></svg>