<svg height='100px' width='100px'  fill="#1f87b5" xmlns="http://www.w3.org/2000/svg" xmlns:xlink="http://www.w3.org/1999/xlink" version="1.1" x="0px" y="0px" viewBox="0 0 100 100" enable-background="new 0 0 100 100" xml:space="preserve"><circle cx="74.754" cy="70.831" r="0.465"></circle><circle cx="74.754" cy="61.385" r="0.465"></circle><circle cx="74.754" cy="42.493" r="0.465"></circle><circle cx="74.754" cy="33.047" r="0.465"></circle><path d="M70.955,56.183c0,0.673,0.681,1.434,1.414,1.434h4.647c0.733,0,1.214-0.761,1.214-1.434v-9.024  c0-0.673-0.48-1.208-1.214-1.208h-4.647c-0.733,0-1.414,0.535-1.414,1.208V56.183z M72.369,46.45h4.647  c0.429,0,0.718,0.285,0.718,0.708v9.024c0,0.391-0.273,0.934-0.718,0.934h-1.623v-0.015v-5.62v-0.476h-0.528h-0.593h-0.528v0.476  v5.62v0.015h-1.375c-0.465,0-0.919-0.534-0.919-0.934v-9.024C71.45,46.788,71.889,46.45,72.369,46.45z M74.865,57.102h-0.593v-5.62  h0.593V57.102z"></path><circle cx="26.738" cy="70.831" r="0.465"></circle><circle cx="26.738" cy="61.385" r="0.465"></circle><circle cx="26.738" cy="42.493" r="0.465"></circle><circle cx="26.738" cy="33.047" r="0.465"></circle><path d="M22.938,56.183c0,0.673,0.682,1.434,1.414,1.434h4.648c0.733,0,1.214-0.761,1.214-1.434v-9.024  c0-0.673-0.48-1.208-1.214-1.208h-4.648c-0.732,0-1.414,0.535-1.414,1.208V56.183z M24.353,46.45h4.648  c0.429,0,0.718,0.285,0.718,0.708v9.024c0,0.391-0.273,0.934-0.718,0.934h-1.623v-0.015v-5.62v-0.476h-0.527h-0.594h-0.528v0.476  v5.62v0.015h-1.376c-0.464,0-0.918-0.534-0.918-0.934v-9.024C23.435,46.788,23.872,46.45,24.353,46.45z M26.851,57.102h-0.594v-5.62  h0.594V57.102z"></path><path d="M89.295,30.685c0-0.44-0.358-0.799-0.8-0.799c-0.44,0-0.799,0.358-0.799,0.799s0.358,0.799,0.799,0.799  C88.937,31.483,89.295,31.125,89.295,30.685z M87.804,30.685c0-0.382,0.311-0.691,0.691-0.691s0.691,0.31,0.691,0.691  c0,0.381-0.311,0.69-0.691,0.69S87.804,31.065,87.804,30.685z"></path><path d="M87.696,72.755c0,0.44,0.358,0.799,0.799,0.799c0.441,0,0.8-0.358,0.8-0.799s-0.358-0.799-0.8-0.799  C88.055,71.956,87.696,72.314,87.696,72.755z M89.187,72.755c0,0.382-0.311,0.691-0.691,0.691s-0.691-0.31-0.691-0.691  s0.311-0.691,0.691-0.691S89.187,72.373,89.187,72.755z"></path><path d="M10.839,30.81c0,0.44,0.358,0.799,0.798,0.799c0.44,0,0.799-0.358,0.799-0.799s-0.358-0.799-0.799-0.799  C11.197,30.011,10.839,30.369,10.839,30.81z M12.328,30.81c0,0.381-0.311,0.69-0.691,0.69s-0.69-0.31-0.69-0.69  c0-0.382,0.31-0.691,0.69-0.691S12.328,30.428,12.328,30.81z"></path><path d="M10.739,72.755c0,0.44,0.358,0.799,0.798,0.799c0.44,0,0.799-0.358,0.799-0.799s-0.358-0.799-0.799-0.799  C11.098,71.956,10.739,72.314,10.739,72.755z M12.229,72.755c0,0.382-0.311,0.691-0.691,0.691s-0.69-0.31-0.69-0.691  s0.31-0.691,0.69-0.691S12.229,72.373,12.229,72.755z"></path><path d="M75.977,76.372c0,0.154,0.516,0.191,0.755,0.191h4.747c0.24,0,0.132-0.037,0.132-0.191v-1.061h7.748  c0.924,0,1.642-0.838,1.642-1.763V29.775c0-0.924-0.718-1.41-1.642-1.41h-2.616l-0.794-0.626h-5.344l-0.854,0.626H66.137  l-6.173-4.201l-0.001,1.789l3.577,2.412H36.183l3.323-2.296l-0.001-1.877l-5.786,4.173H21.081l-0.793-0.626h-5.344l-0.854,0.626  h-3.536C9.631,28.365,9,28.852,9,29.775v43.773c0,0.925,0.631,1.763,1.555,1.763h6.583v1.061c0,0.154,0.578,0.191,0.818,0.191h4.747  c0.24,0,0.067-0.037,0.067-0.191v-1.061h53.206V76.372z M10.375,32.121v-2.504h2.5v2.504H10.375z M89.358,29.617  c0.158,0,0.39-0.001,0.39,0.158v2.346h-2.504v-2.504H89.358z M86.618,32.747h3.13v38.184h-3.13v3.129H79.09V57.731  c0.293-0.467,0.463-1.014,0.463-1.549v-9.024c0-0.555-0.172-1.06-0.463-1.473V29.617h7.528V32.747z M31.074,74.06V57.731  c0.294-0.467,0.463-1.014,0.463-1.549v-9.024c0-0.555-0.172-1.06-0.463-1.473V29.617h38.946v16.276  c-0.239,0.376-0.389,0.806-0.389,1.265v9.024c0,0.476,0.15,0.93,0.389,1.335V74.06H31.074z M77.924,29.617v15.17  c-0.281-0.105-0.585-0.17-0.907-0.17h-4.647c-0.422,0-0.82,0.103-1.182,0.269V29.617H77.924z M72.369,45.117h4.647  c1.189,0,2.04,0.919,2.04,2.041v9.024c0,1.141-0.871,2.268-2.04,2.268h-4.647c-1.17,0-2.241-1.127-2.241-2.268v-9.024  C70.128,46.036,71.179,45.117,72.369,45.117z M71.188,74.06V58.636c0.365,0.193,0.766,0.314,1.182,0.314h4.647  c0.33,0,0.63-0.077,0.907-0.197V74.06H71.188z M89.748,73.434v0.115c0,0.159-0.231,0.511-0.39,0.511h-2.114v-2.504h2.504V73.434z   M29.908,29.617v15.17c-0.281-0.105-0.584-0.17-0.907-0.17h-4.648c-0.422,0-0.819,0.103-1.181,0.269V29.617H29.908z M24.353,45.117  h4.648c1.189,0,2.04,0.919,2.04,2.041v9.024c0,1.141-0.871,2.268-2.04,2.268h-4.648c-1.169,0-2.24-1.127-2.24-2.268v-9.024  C22.112,46.036,23.163,45.117,24.353,45.117z M29.908,58.753V74.06h-6.736V58.636c0.365,0.193,0.766,0.314,1.181,0.314h4.648  C29.33,58.95,29.631,58.873,29.908,58.753z M10.252,32.747h3.373v-3.13h8.381v16.276c-0.24,0.377-0.389,0.806-0.389,1.265v9.024  c0,0.475,0.15,0.93,0.389,1.335V74.06h-8.412v-3.129h-3.342V32.747z M10.25,74.06v-2.504h2.531v2.504H10.25z"></path><path d="M40.415,26.723h18.661c0.344,0,0.626-0.282,0.626-0.626v-2.034c0-0.345-0.282-0.626-0.626-0.626H40.415  c-0.345,0-0.626,0.281-0.626,0.626v2.034C39.789,26.44,40.07,26.723,40.415,26.723z"></path></svg>