<svg height='100px' width='100px'  fill="#1f87b5" xmlns="http://www.w3.org/2000/svg" xmlns:xlink="http://www.w3.org/1999/xlink" version="1.1" x="0px" y="0px" viewBox="0 0 100 100" enable-background="new 0 0 100 100" xml:space="preserve"><path d="M89.336,22.439H68.531v-3.51c0-4.479-3.644-8.123-8.123-8.123H39.592c-4.479,0-8.122,3.644-8.122,8.123v3.51H10.664  c-4.479,0-8.123,3.644-8.123,8.123v50.51c0,4.479,3.644,8.122,8.123,8.122h78.672c4.479,0,8.123-3.644,8.123-8.122v-50.51  C97.459,26.083,93.815,22.439,89.336,22.439z M6.542,40.556c0.454,0.042,0.909,0.07,1.367,0.07c7.966,0,14.469-6.307,14.823-14.187  h54.537c0.354,7.88,6.857,14.187,14.823,14.187c0.458,0,0.913-0.028,1.367-0.07v30.521c-0.454-0.042-0.909-0.07-1.367-0.07  c-3.968,0-7.699,1.545-10.505,4.352c-2.649,2.648-4.156,6.124-4.318,9.835H22.731c-0.354-7.88-6.856-14.187-14.823-14.187  c-0.458,0-0.914,0.028-1.367,0.07V40.556z M93.459,30.562v5.975c-0.452,0.057-0.908,0.09-1.367,0.09  c-5.76,0-10.475-4.513-10.823-10.187h8.067C91.609,26.439,93.459,28.289,93.459,30.562z M35.47,18.929  c0-2.273,1.849-4.123,4.122-4.123h20.816c2.273,0,4.123,1.85,4.123,4.123v3.51H35.47V18.929z M10.664,26.439h8.067  c-0.349,5.674-5.063,10.187-10.823,10.187c-0.459,0-0.915-0.033-1.367-0.09v-5.975C6.542,28.289,8.391,26.439,10.664,26.439z   M6.542,81.071v-5.976c0.452-0.056,0.908-0.089,1.367-0.089c5.76,0,10.474,4.513,10.823,10.187h-8.067  C8.391,85.193,6.542,83.344,6.542,81.071z M89.336,85.193h-8.067c0.16-2.646,1.255-5.115,3.146-7.007  c2.051-2.051,4.777-3.18,7.677-3.18c0.458,0,0.915,0.033,1.367,0.09v5.975C93.459,83.344,91.609,85.193,89.336,85.193z"></path></svg>