<svg height='100px' width='100px'  fill="#1f87b5" xmlns:x="http://ns.adobe.com/Extensibility/1.0/" xmlns:i="http://ns.adobe.com/AdobeIllustrator/10.0/" xmlns:graph="http://ns.adobe.com/Graphs/1.0/" xmlns="http://www.w3.org/2000/svg" xmlns:xlink="http://www.w3.org/1999/xlink" version="1.1" x="0px" y="0px" viewBox="0 0 100 100" enable-background="new 0 0 100 100" xml:space="preserve"><g><g i:extraneous="self"><path d="M65.8,8.31V8.09c0-0.05,0-0.11-0.01-0.16c0.02,0.06,0.03,0.12,0.03,0.18C65.82,8.18,65.82,8.24,65.8,8.31z"></path><path d="M88.42,33.41v-0.24c0-0.05,0-0.11-0.01-0.16c-0.01-0.05-0.02-0.09-0.03-0.14c-0.03-0.09-0.08-0.17-0.13-0.25    c-0.07-0.1-0.15-0.19-0.25-0.25c-0.08-0.05-0.17-0.1-0.26-0.13c-0.1-0.02-0.2-0.04-0.3-0.04c0,0,0,0-0.01,0H87.2l-13.04,0.13    c-0.55,0.01-0.99,0.46-0.99,1.01c0.01,0.55,0.46,0.99,1,0.99c0.01,0,0.01,0,0.01,0l10.72-0.1L69.11,50.02    c-3.69-2.85-8.29-4.55-13.29-4.59c-0.05-6.38-2.81-12.12-7.17-16.13l15.79-15.78l0.11,10.94c0.01,0.55,0.45,0.99,1,0.99h0.01    c0.55-0.01,1-0.46,0.99-1.01l-0.13-13.03v-0.24c0-0.05,0-0.11-0.01-0.16c-0.01-0.05-0.02-0.09-0.03-0.14    c-0.03-0.09-0.08-0.17-0.13-0.25c-0.07-0.1-0.15-0.19-0.25-0.25c-0.08-0.06-0.16-0.1-0.26-0.13c-0.1-0.02-0.2-0.04-0.3-0.04    c0,0,0,0-0.01,0H65.2l-13.04,0.13c-0.55,0-0.99,0.46-0.99,1.01c0.01,0.55,0.46,0.99,1,0.99c0.01,0,0.01,0,0.01,0l10.72-0.1    L47.11,28.02c-3.74-2.88-8.41-4.59-13.47-4.59c-12.24,0-22.19,9.95-22.19,22.19c0,12.17,9.85,22.08,22,22.18    c0.1,12.15,10.01,22,22.19,22c12.23,0,22.18-9.95,22.18-22.18c0-6.45-2.77-12.27-7.17-16.32l15.79-15.78l0.11,10.94    c0.01,0.55,0.45,0.99,1,0.99h0.01c0.55-0.01,1-0.46,0.99-1.01L88.42,33.41z M13.45,45.62c0-11.14,9.06-20.19,20.19-20.19    c11.09,0,20.12,8.99,20.18,20.08c-10.79,0.87-19.42,9.5-20.29,20.29C22.45,65.74,13.45,56.71,13.45,45.62z M53.73,47.52    c-0.9,9.62-8.57,17.29-18.19,18.19C36.45,56.1,44.12,48.43,53.73,47.52z M75.82,67.62c0,11.13-9.05,20.18-20.18,20.18    c-11.1,0-20.14-9-20.19-20.08c10.79-0.87,19.42-9.5,20.29-20.29C66.82,47.48,75.82,56.52,75.82,67.62z"></path><path d="M65.12,7.16c-0.1-0.02-0.2-0.04-0.3-0.04c0,0,0,0-0.01,0h-0.22c0.06-0.01,0.13-0.02,0.2-0.02c0.01,0,0.01,0,0.01,0    C64.91,7.1,65.02,7.12,65.12,7.16z"></path><path d="M87.8,30.31v-0.22c0-0.05,0-0.11-0.01-0.16c0.02,0.06,0.03,0.12,0.03,0.18C87.82,30.18,87.82,30.24,87.8,30.31z"></path><path d="M87.12,29.16c-0.1-0.02-0.2-0.04-0.3-0.04c0,0,0,0-0.01,0h-0.22c0.06-0.01,0.13-0.02,0.2-0.02c0.01,0,0.01,0,0.01,0    C86.91,29.1,87.02,29.12,87.12,29.16z"></path></g></g></svg>