<svg height='100px' width='100px'  fill="#1f87b5" xmlns="http://www.w3.org/2000/svg" xmlns:xlink="http://www.w3.org/1999/xlink" xml:space="preserve" version="1.1" style="shape-rendering:geometricPrecision;text-rendering:geometricPrecision;image-rendering:optimizeQuality;" viewBox="0 0 0.45 0.336" x="0px" y="0px" fill-rule="evenodd" clip-rule="evenodd"><defs><style type="text/css">
   
    .fil0 {fill:#1f87b5}
   
  </style></defs><g><path class="fil0" d="M0 0.076l0 0.26 0.053 0 0 -0.26 -0.053 0zm0.289 0l0 -0.026c0,-0.007 -0.003,-0.014 -0.008,-0.019 -0.005,-0.004 -0.011,-0.007 -0.018,-0.007l-0.076 0c-0.007,0 -0.014,0.003 -0.018,0.007 -0.005,0.005 -0.008,0.012 -0.008,0.019l0 0.026 0.128 0zm-0.152 0l0 -0.026c0,-0.014 0.006,-0.026 0.015,-0.035 0.009,-0.009 0.021,-0.015 0.035,-0.015l0.076 0c0.014,0 0.026,0.006 0.035,0.015 0.009,0.009 0.015,0.021 0.015,0.035l0 0.026 0.06 0 0 0.26 -0.296 0 0 -0.26 0.06 0 0 0zm0.26 0l0 0.26 0.053 0 0 -0.26 -0.053 0z"></path></g></svg>