<svg height='100px' width='100px'  fill="#1f87b5" xmlns="http://www.w3.org/2000/svg" xmlns:xlink="http://www.w3.org/1999/xlink" xml:space="preserve" version="1.1" style="shape-rendering:geometricPrecision;text-rendering:geometricPrecision;image-rendering:optimizeQuality;" viewBox="0 0 60000 60000" x="0px" y="0px" fill-rule="evenodd" clip-rule="evenodd"><defs><style type="text/css">
   
    .fil0 {fill:#1f87b5;fill-rule:nonzero}
   
  </style></defs><g><path class="fil0" d="M31160 23642c-3,32 -9,64 -19,93 368,343 715,695 1044,1056 2352,2241 4536,1572 6254,-962 373,-550 748,-1104 1280,-1572 75,-74 196,-77 275,-5 81,75 86,201 12,282 -447,486 -752,1058 -1053,1625 -349,656 -694,1306 -1256,1842 63,-9 126,-18 189,-28 1592,-234 3204,-470 4884,266 202,88 294,323 206,525 -88,202 -323,294 -525,206 -1104,-484 -2224,-480 -3340,-357 586,313 923,819 1261,1327 281,422 563,846 1001,1117 117,72 153,226 81,343 -72,117 -226,153 -343,81 -533,-329 -845,-798 -1155,-1266 -460,-693 -918,-1382 -2167,-1417 -8,0 -15,-1 -22,-2 -1364,198 -2714,359 -4062,-117 2467,3494 3616,7464 4609,10899 182,630 359,1241 537,1826 483,1322 2977,2083 3397,900 118,-334 55,-613 -100,-860 -174,-277 -464,-528 -757,-768 -107,-87 -123,-244 -36,-351 87,-107 244,-123 351,-36 326,266 652,549 864,889 232,370 327,790 148,1292 -26,74 -131,235 -284,393 917,27 1633,-15 2214,-157 675,-165 1173,-471 1609,-973 90,-104 247,-115 352,-25 104,90 115,247 25,352 -507,583 -1085,939 -1869,1131 -209,51 -433,90 -674,119 646,329 1260,896 1793,1882 65,121 20,273 -102,338 -121,65 -273,20 -338,-102 -612,-1132 -1354,-1642 -2124,-1879 -1203,-371 -2686,146 -3990,-663 666,1907 1434,3408 2625,4185 120,73 244,144 371,211l10 5c198,97 281,336 184,534 -97,198 -336,281 -534,184 -171,-84 -335,-178 -492,-281 -1929,-1190 -3043,-2991 -3949,-5139 -122,946 -636,1719 -1218,2572 -870,1469 -207,2511 718,3961 119,187 242,379 361,571 72,117 36,271 -81,343 -117,72 -271,36 -343,-81 -125,-202 -243,-386 -357,-565 -651,-1022 -1185,-1860 -1220,-2783 -329,596 -615,1267 -785,2068 -29,135 -161,221 -296,192 -135,-29 -221,-161 -192,-296 333,-1570 1071,-2650 1734,-3618l41 -61c2,-3 4,-7 7,-10 1670,-2444 1240,-3207 428,-5529 -1145,-3274 -2437,-6970 -5427,-10344 -166,4622 -43,10244 402,14887 392,4087 1022,7390 1906,8516 626,797 1478,1533 2640,2204 1174,678 2667,1290 4564,1833 1888,209 3554,150 4994,-160 1969,-424 3515,-1321 4626,-2648 1118,-1335 1806,-3115 2051,-5295 238,-2122 58,-4620 -553,-7455l0 0c-1,-6 -2,-12 -4,-19 -354,-2179 -1009,-4721 -2070,-7359 -694,-1725 -1561,-3490 -2631,-5222l-1539 5577c175,94 334,213 473,352 364,364 590,868 590,1424 0,556 -225,1060 -590,1424 -364,364 -868,590 -1424,590 -556,0 -1060,-225 -1424,-590 -364,-364 -590,-868 -590,-1424 0,-556 225,-1060 590,-1424 364,-364 868,-590 1424,-590 63,0 125,3 187,9l1724 -6250c-115,-173 -232,-345 -351,-517 -1084,-1563 -2341,-2916 -3656,-4028 -1840,-1556 -3787,-2633 -5521,-3146 -1670,-494 -3121,-462 -4047,180 -163,113 -310,246 -440,400 -213,253 -412,844 -592,1695 -201,952 -366,2208 -494,3670zm13620 6578c-291,-58 -605,-73 -901,-51l60 798c227,-16 469,-5 692,39l149 -786zm-19189 -16093l3427 0c221,0 400,179 400,400l0 1449c0,221 -179,400 -400,400l-3427 0c-221,0 -400,-179 -400,-400l0 -1449c0,-221 179,-400 400,-400zm3027 800l-2627 0 0 649 2627 0 0 -649zm26209 -153c-26,-602 -224,-1195 -514,-1719 -335,-606 -786,-1112 -1231,-1432 -70,-50 -164,-76 -262,-81 -92,-4 -184,11 -265,43 -64,25 -115,58 -142,96 -11,15 -18,33 -19,52 -2,41 46,107 98,166 83,94 174,159 203,181 386,277 772,707 1053,1216 246,446 416,959 439,1492 11,265 110,418 229,473 37,17 76,24 116,22 37,-2 75,-13 111,-33 112,-63 195,-220 185,-476zm186 -2104c343,622 579,1335 611,2072 26,599 -238,1006 -591,1204 -145,81 -306,126 -470,133 -162,7 -325,-24 -478,-94 -369,-169 -668,-556 -695,-1167 -17,-397 -149,-790 -342,-1139 -223,-404 -523,-741 -818,-953 -49,-35 -200,-145 -334,-296 -165,-186 -312,-436 -298,-731 9,-184 70,-346 169,-483 122,-169 297,-295 495,-374 182,-72 389,-105 593,-96 245,11 491,86 694,231 536,385 1073,984 1465,1694zm-4687 5427c-37,-855 -317,-1695 -726,-2435 -472,-854 -1109,-1569 -1740,-2022 -122,-87 -279,-132 -443,-140 -147,-7 -296,17 -427,69 -114,45 -207,108 -262,184 -32,44 -52,96 -54,153 -5,105 79,230 173,335 124,140 261,239 305,271 514,369 1030,944 1406,1625 329,597 556,1281 586,1989 18,430 192,686 403,783 72,33 150,48 228,45 75,-3 150,-25 221,-64 200,-112 349,-376 331,-793zm-26 -2820c463,838 781,1798 823,2789 33,760 -297,1274 -737,1521 -179,101 -378,156 -580,164 -200,8 -402,-30 -590,-116 -461,-211 -836,-701 -869,-1476 -25,-573 -213,-1137 -489,-1636 -319,-577 -748,-1058 -1171,-1363 -64,-46 -260,-188 -436,-386 -206,-232 -390,-542 -373,-901 10,-222 84,-418 204,-585 150,-208 367,-365 615,-463 231,-91 495,-134 755,-122 310,15 620,108 874,290 721,518 1445,1326 1974,2284zm1547 -7474c-822,-248 -1707,-260 -2540,-118 -962,164 -1846,531 -2482,977 -123,87 -218,221 -279,373 -56,138 -82,287 -76,425 5,120 34,228 89,307 32,45 74,81 128,103 98,39 243,1 374,-53 166,-68 308,-167 354,-199 518,-364 1231,-661 1998,-792 673,-115 1393,-104 2070,100 414,125 713,46 874,-122 54,-56 93,-124 115,-199 22,-74 27,-153 13,-231 -40,-225 -239,-451 -637,-571zm-2675 -905c945,-161 1956,-146 2903,140 730,220 1108,702 1196,1199 36,203 23,408 -35,600 -58,191 -161,370 -306,521 -351,366 -936,558 -1677,335 -551,-166 -1147,-174 -1707,-78 -649,111 -1245,358 -1673,657 -63,44 -258,180 -510,284 -287,118 -640,190 -974,56 -206,-83 -367,-217 -484,-384 -146,-209 -222,-466 -233,-735 -10,-250 36,-513 133,-754 116,-288 306,-550 561,-729 726,-510 1728,-927 2807,-1111zm793 -2270c2363,0 4502,958 6050,2506 1548,1548 2506,3687 2506,6050 0,2363 -958,4502 -2506,6050 -1548,1548 -3687,2506 -6050,2506 -624,0 -1232,-67 -1818,-194l-1022 3705c1278,1970 2293,3993 3085,5964 1082,2690 1750,5283 2114,7510 628,2918 813,5501 565,7708 -263,2340 -1011,4262 -2232,5720 -1227,1466 -2923,2454 -5073,2917 -1532,330 -3295,392 -5283,168 -23,-2 -44,-7 -66,-13l0 0c-1969,-562 -3531,-1204 -4772,-1920 -1260,-727 -2187,-1529 -2871,-2401 -986,-1256 -1666,-4709 -2071,-8935 -474,-4946 -586,-10989 -374,-15779 -574,-581 -1203,-1149 -1897,-1703 -495,-394 -787,-586 -1022,-582 -236,4 -533,208 -1032,605 -683,543 -1303,1102 -1870,1672 213,4791 101,10839 -373,15787 -405,4227 -1086,7679 -2071,8935 -684,872 -1611,1674 -2871,2401 -1241,716 -2803,1358 -4772,1920l0 0c-21,6 -43,10 -66,13 -1988,223 -3751,161 -5283,-168 -2150,-463 -3846,-1451 -5073,-2917 -1221,-1458 -1969,-3380 -2232,-5720 -248,-2207 -63,-4789 565,-7708 363,-2227 1032,-4820 2114,-7510 904,-2249 2098,-4568 3644,-6797 1127,-1625 2433,-3031 3797,-4185 1926,-1628 3975,-2760 5811,-3302 1899,-562 3591,-497 4726,290 222,154 422,334 596,541 302,358 557,1069 763,2048 186,883 342,1998 465,3277 96,-81 194,-162 293,-241 310,-249 571,-461 760,-687 175,-210 302,-454 376,-796l293 -1356c47,-216 259,-353 475,-306 216,47 353,259 306,475l-293 1356c-104,479 -289,828 -545,1137 -243,292 -531,525 -872,800 -711,572 -1353,1180 -1937,1815 -12,16 -26,32 -41,47 -4,3 -7,7 -11,10 -3428,3764 -4792,8482 -5944,12464 -247,855 -485,1678 -732,2453 412,-980 780,-2039 1165,-3147 1464,-4211 3165,-9106 8339,-13222 637,-507 1046,-768 1516,-777 472,-8 887,240 1531,753 5160,4113 6873,9011 8346,13226 399,1141 780,2231 1208,3236 -255,-795 -499,-1641 -754,-2522 -1151,-3982 -2516,-8699 -5944,-12464 -4,-3 -7,-7 -11,-10 -15,-15 -29,-30 -41,-47 -583,-635 -1226,-1243 -1937,-1815 -341,-275 -630,-508 -872,-800 -256,-308 -441,-658 -545,-1137l-293 -1356c-47,-216 91,-428 306,-475 216,-47 428,91 475,306l293 1356c74,342 201,586 376,796 188,227 450,438 760,687 99,80 197,160 293,241 123,-1279 279,-2394 465,-3277 207,-980 461,-1691 763,-2048 175,-207 374,-387 596,-541 1134,-786 2826,-852 4726,-290 1836,543 3885,1674 5811,3302 1353,1144 2649,2537 3770,4145l838 -3037c-1322,-419 -2504,-1150 -3461,-2107 -1548,-1548 -2506,-3687 -2506,-6050 0,-2363 958,-4502 2506,-6050 1548,-1548 3687,-2506 6050,-2506zm5484 3072c-1403,-1403 -3342,-2272 -5484,-2272 -2142,0 -4081,868 -5484,2272 -1404,1404 -2272,3342 -2272,5484 0,2142 868,4081 2272,5484 1404,1404 3342,2272 5484,2272 2142,0 4081,-868 5484,-2272 1403,-1403 2272,-3342 2272,-5484 0,-2142 -868,-4081 -2272,-5484zm-12111 22620c-285,84 -570,217 -822,373l424 679c193,-120 413,-222 631,-286l-233 -765zm-1520 945c-207,221 -383,464 -527,731l705 378c112,-206 247,-392 407,-563l-586 -545zm-848 1572c-59,327 -102,560 -93,899l800 -25 0 1c-6,-262 25,-436 71,-689l-778 -185zm47 1788c85,289 209,568 366,825l681 -420c-121,-199 -215,-411 -281,-634l-767 228zm931 1526c218,209 462,387 726,533l386 -701c-204,-113 -391,-250 -560,-412l-552 579zm1567 862c293,72 593,105 895,100l-15 -800c-233,4 -464,-22 -690,-78l-190 777zm1788 -32c292,-84 565,-202 826,-358l-411 -686c-202,120 -412,211 -638,276l223 768zm1534 -918c211,-217 391,-457 539,-721l-698 -390c-115,204 -254,388 -417,556l576 556zm876 -1559c74,-293 111,-592 108,-894l-800 10c3,233 -27,464 -84,690l776 194zm-16 -1786c-79,-290 -199,-572 -351,-831l-689 407c117,199 208,416 269,638l771 -214zm-904 -1543c-213,-212 -458,-398 -718,-547l-395 696 -1 -1c202,117 386,257 552,421l562 -569zm-1586 1608c-220,-220 -523,-356 -858,-356 -335,0 -639,136 -858,356 -220,220 -356,523 -356,858 0,335 136,639 356,858 220,220 523,356 858,356 335,0 639,-136 858,-356 220,-220 356,-523 356,-858 0,-335 -136,-639 -356,-858zm-19617 -15711l3427 0c221,0 400,179 400,400l0 1449c0,221 -179,400 -400,400l-3427 0c-221,0 -400,-179 -400,-400l0 -1449c0,-221 179,-400 400,-400zm3027 800l-2627 0 0 649 2627 0 0 -649zm-17890 17351c4,-279 95,-531 241,-763 213,-339 538,-622 864,-889 107,-87 264,-71 351,36 87,107 71,264 -36,351 -293,239 -583,490 -757,768 -155,247 -218,526 -100,860 21,58 77,161 151,262 40,55 84,107 127,146 967,650 2319,607 3458,489 1497,-156 1628,-679 2171,-2325 824,-2501 1893,-5100 3573,-7478 -1348,477 -2698,316 -4062,117 -7,1 -15,1 -22,2 -1249,36 -1707,725 -2167,1417 -311,467 -622,936 -1155,1266 -117,72 -271,36 -343,-81 -72,-117 -36,-271 81,-343 438,-271 720,-695 1001,-1117 338,-508 674,-1014 1261,-1327 -1117,-124 -2237,-127 -3340,357 -202,88 -437,-4 -525,-206 -88,-202 4,-437 206,-525 1680,-737 3292,-500 4884,-266 63,9 126,19 189,28 -562,-537 -908,-1187 -1256,-1842 -302,-567 -606,-1139 -1053,-1625 -75,-81 -69,-207 12,-282 79,-72 200,-70 275,5 531,468 907,1022 1280,1572 2644,3901 4722,2310 7298,-93 -10,-30 -17,-61 -19,-93 -128,-1462 -293,-2717 -494,-3670 -180,-852 -378,-1443 -592,-1695 -130,-154 -278,-287 -440,-400 -926,-642 -2377,-674 -4047,-180 -1734,513 -3680,1590 -5521,3146 -1315,1112 -2573,2465 -3656,4028 -1509,2177 -2676,4442 -3560,6641 -1061,2638 -1715,5180 -2070,7359 -1,6 -2,13 -4,19l0 0c-610,2835 -791,5333 -553,7455 245,2180 933,3960 2051,5295 1111,1327 2658,2224 4626,2648 1440,310 3107,369 4994,160 1897,-543 3390,-1156 4564,-1833 1162,-670 2014,-1406 2640,-2204 884,-1127 1514,-4429 1906,-8516 445,-4648 569,-10275 401,-14900 -3018,3384 -4307,7093 -5448,10375 -172,495 -341,981 -512,1456 23,54 27,116 7,176 -548,1635 129,2671 954,3879 2,3 5,6 7,10l41 61c662,969 1401,2049 1734,3618 29,135 -58,267 -192,296 -135,29 -267,-58 -296,-192 -170,-801 -457,-1472 -785,-2068 -35,922 -569,1761 -1220,2783 -114,179 -232,364 -357,565 -72,117 -226,153 -343,81 -117,-72 -153,-226 -81,-343 119,-192 242,-385 361,-571 924,-1451 1588,-2492 718,-3961 -585,-856 -1101,-1633 -1220,-2584 -902,2153 -2012,3959 -3947,5153 -157,103 -320,197 -491,281l0 -1c-193,94 -427,18 -528,-173 -103,-195 -28,-436 167,-539l11 -6 0 0 10 -5c127,-68 251,-138 371,-211 1818,-1187 2650,-4064 3642,-7493 95,-328 191,-661 290,-998 -449,295 -986,385 -1568,422 -1913,123 -3372,-68 -4559,2128 -65,121 -217,167 -338,102 -121,-65 -167,-217 -102,-338 650,-1203 1422,-1782 2223,-2067 -991,-338 -1547,-1013 -2105,-1693 -109,-133 -219,-267 -338,-403 -90,-104 -79,-262 25,-352 104,-90 262,-79 352,25 115,132 230,272 346,413 112,136 224,273 340,405z"></path></g></svg>