<svg height='100px' width='100px'  fill="#1f87b5" xmlns="http://www.w3.org/2000/svg" xmlns:xlink="http://www.w3.org/1999/xlink" version="1.1" x="0px" y="0px" viewBox="0 0 199.469 238.184" style="enable-background:new 0 0 199.469 238.184;" xml:space="preserve"><g><circle cx="70.596" cy="22.5" r="22.5"></circle><path d="M142.966,49.767c4.156-2.863,7.314-7.204,8.548-12.507c2.629-11.292-4.395-22.579-15.686-25.21   c-11.293-2.629-22.58,4.395-25.211,15.688c-1.771,7.604,0.847,15.194,6.187,20.151c2.591,2.405,5.812,4.199,9.501,5.058   C132.295,54.342,138.27,53.001,142.966,49.767z"></path><path d="M4,224.516h29c2.209,0,4-1.791,4-4v-61c0-2.209-1.791-4-4-4H21.75v-6.788c2.787-1.338,4.663-4.236,4.536-7.524   c-0.096-2.456-0.14-4.835-0.14-7.144c0.031-30.663,7.792-47.208,14.771-56.203c0.212-0.271,0.421-0.516,0.632-0.773   c0.675-0.827,1.344-1.606,1.999-2.303v34.1v18.939v5.884v92.116c0,6.828,5.537,12.363,12.363,12.363   c6.828,0,12.365-5.535,12.365-12.363v-88.273v-2h4.635v2v88.273c0,6.828,5.537,12.363,12.363,12.363   c6.828,0,12.365-5.535,12.365-12.363v-51.658h-9.909h-2.426l0.463-2.381l6.722-34.592l0.438-2.253l4.713-24.257v-1.798V90.955   V72.842v-6.509c0.619-0.125,1.289-0.254,1.998-0.385c2.171-0.402,4.743-0.821,7.6-1.185c-1.558,1.134-4.033,3.074-7.6,6.263v17.921   c1.939-1.932,3.68-3.612,5.25-5.089L101.558,101l-1.919,9.877l-1.998,10.284l-2.375,12.224l-0.562,2.89l-6.973,35.888h9.909h11.758   v2v54.021c0,5.523,4.477,10,10,10c5.521,0,10-4.477,10-10v-54.021v-2h3.333v2v54.021c0,5.523,4.477,10,10,10   c5.521,0,10-4.477,10-10v-54.021v-2h13.862v-5.646c0-3.155,2.449-5.744,5.546-5.977l-11.532-59.354l-2.973-15.301   c4.434,7.763,9.92,21.071,15.252,43.145c0.001,0.003,0.002,0.006,0.003,0.009c1.784,7.38,3.558,15.737,5.279,25.197   c0.114,0.632,0.338,1.213,0.613,1.759c0.477,0.943,1.163,1.736,1.999,2.337v4.186h-6.219h-1.969c-0.023,0-0.045,0.006-0.068,0.007   c-2.177,0.037-3.932,1.808-3.932,3.993v5.646v2v40.354c0,2.209,1.791,4,4,4h22.875c2.209,0,4-1.791,4-4v-48c0-2.209-1.791-4-4-4   h-8.188v-3.547c0.764-0.351,1.438-0.841,2-1.435c1.372-1.452,2.063-3.51,1.679-5.627c-1.763-9.67-3.582-18.259-5.43-25.903   c-0.003-0.01-0.003-0.021-0.006-0.031c-4.73-19.484-9.601-32.807-14.219-42.063c-0.469,0.067-0.943,0.107-1.425,0.107   c-3.103,0-5.975-1.403-7.884-3.846c-1.924-2.454-4.169-4.659-6.802-6.843c-2.203-1.829-4.681-3.644-7.493-5.572   c2.519,0.954,4.883,2.094,7.08,3.441c3.353,2.055,6.318,4.587,8.789,7.743c1.577,2.019,3.932,3.074,6.31,3.074   c0.145,0,0.288-0.027,0.432-0.035c1.579-0.085,3.147-0.613,4.488-1.661c3.48-2.722,4.097-7.749,1.378-11.229   c-6.852-8.777-16.054-14.164-25.477-17.257c-1.469-0.483-2.947-0.898-4.428-1.281c-0.236-0.061-0.473-0.115-0.709-0.174   c-3.977,3.229-9.028,5.122-14.482,5.122c-1.751,0-3.513-0.202-5.23-0.604c-4.583-1.066-8.629-3.46-11.734-6.861   c-8.212,0.53-15.253,1.714-19.927,2.669c-1.907,0.39-3.416,0.741-4.453,0.995H51.277c-1.112,0-2.167,0.239-3.122,0.662   c-0.955,0.34-2.952,1.159-5.572,2.728c-3.9,2.336-9.143,6.331-14.287,12.933c-9.48,12.129-18.181,32.706-18.15,66.039   c0,2.509,0.047,5.094,0.153,7.767c0.124,3.228,2.147,5.934,4.951,7.088v6.6H4c-2.209,0-4,1.791-4,4v61   C0,222.725,1.791,224.516,4,224.516z M147.984,75.288c-0.06-0.015-0.119-0.03-0.18-0.047   C147.865,75.258,147.925,75.273,147.984,75.288z M146.841,74.885c-0.153-0.071-0.308-0.157-0.462-0.244   C146.533,74.728,146.688,74.814,146.841,74.885z M146.282,74.589c-0.027-0.016-0.055-0.027-0.082-0.043   C146.228,74.563,146.255,74.573,146.282,74.589z M146.113,74.489c-0.155-0.097-0.309-0.212-0.462-0.328   C145.805,74.277,145.958,74.392,146.113,74.489z"></path></g></svg>